<svg width="24" height="24" viewBox="0 0 24 24" fill="none" xmlns="http://www.w3.org/2000/svg">
<path d="M15.4286 6.85715H8.57142V9.14286H15.4286V6.85715ZM16 12C15.8484 12 15.7031 11.9398 15.5959 11.8326C15.4888 11.7255 15.4286 11.5801 15.4286 11.4286C15.4286 11.277 15.4888 11.1317 15.5959 11.0245C15.7031 10.9174 15.8484 10.8571 16 10.8571C16.1515 10.8571 16.2969 10.9174 16.4041 11.0245C16.5112 11.1317 16.5714 11.277 16.5714 11.4286C16.5714 11.5801 16.5112 11.7255 16.4041 11.8326C16.2969 11.9398 16.1515 12 16 12ZM14.2857 16H9.71428V13.1429H14.2857V16ZM16 9.71429H7.99999C7.54533 9.71429 7.1093 9.8949 6.78781 10.2164C6.46632 10.5379 6.28571 10.9739 6.28571 11.4286V14.8571H8.57142V17.1429H15.4286V14.8571H17.7143V11.4286C17.7143 10.9739 17.5337 10.5379 17.2122 10.2164C16.8907 9.8949 16.4546 9.71429 16 9.71429Z" fill="#78909C"/>
</svg>
